<svg width="783" height="254" viewBox="0 0 783 254" fill="none" xmlns="http://www.w3.org/2000/svg">
<path d="M67.8327 53.1326C77.7032 60.983 85.7835 61.9831 90.3638 61.653C96.7941 62.023 107.945 60.513 121.555 49.8625C143.316 32.8417 141.036 15.4209 140.546 12.5907C140.056 9.76061 118.755 5.63041 97.0041 22.6512C86.1036 31.1716 82.9534 40.6621 82.5134 48.0024C81.9734 43.9622 82.0034 38.3719 84.3835 32.3317C69.2128 20.9711 54.6521 23.9313 54.3021 25.9614C53.942 28.0315 52.262 40.7521 67.8327 53.1326Z" fill="#2294F5"/>
<path d="M62.9625 116.576C61.3924 114.205 60.0823 111.635 59.0823 108.915C55.3121 115.536 48.3218 119.986 40.3214 119.986C30.641 119.986 22.4406 113.475 19.6304 104.465C24.6107 110.535 32.061 114.395 40.3914 114.395C47.3617 114.395 53.712 111.695 58.5223 107.255C57.4122 103.705 56.8022 99.9248 56.8022 96.0046C56.8022 88.3843 59.0723 81.3039 62.9625 75.4337C57.4122 69.0134 49.3118 64.9732 40.2814 64.9732C23.5606 64.9732 10 78.8738 10 96.0046C10 113.145 23.5606 127.036 40.2914 127.036C49.3118 127.036 57.4222 122.996 62.9625 116.576Z" fill="#2294F5"/>
<path fill-rule="evenodd" clip-rule="evenodd" d="M62.3124 96.0046C62.3124 78.8638 75.8731 64.9732 92.6039 64.9732C109.335 64.9732 122.895 78.8738 122.895 96.0046C122.895 113.145 109.335 127.036 92.6039 127.036C75.8731 127.036 62.3124 113.145 62.3124 96.0046ZM71.9529 104.465C74.763 113.475 82.9634 119.986 92.6439 119.986C102.234 119.986 110.375 113.595 113.255 104.735C108.275 110.655 100.924 114.395 92.7139 114.395C84.3835 114.395 76.9331 110.535 71.9529 104.465Z" fill="#2294F5"/>
<path fill-rule="evenodd" clip-rule="evenodd" d="M118.925 121.566C116.265 124.376 113.165 126.746 109.745 128.566C106.455 130.416 102.834 131.736 99.0142 132.446C96.6941 136.307 95.354 140.857 95.354 145.727C95.354 159.748 106.445 171.118 120.135 171.118C133.826 171.118 144.916 159.748 144.916 145.727C144.916 141.037 143.676 136.637 141.506 132.866C132.646 132.016 124.715 127.836 118.925 121.566ZM120.175 165.478C112.435 165.478 105.864 160.148 103.624 152.787C107.615 157.758 113.575 160.908 120.235 160.908C126.795 160.908 132.686 157.848 136.666 152.997C134.356 160.258 127.846 165.478 120.175 165.478Z" fill="#2294F5"/>
<path d="M122.895 75.4337C128.446 69.0134 136.546 64.9732 145.576 64.9732C162.297 64.9732 175.858 78.8738 175.868 95.9946C175.868 113.135 162.307 127.026 145.576 127.026C136.546 127.026 128.446 122.986 122.895 116.566C124.485 114.165 125.805 111.565 126.805 108.815C130.566 115.486 137.586 119.976 145.616 119.976C155.207 119.976 163.337 113.585 166.227 104.725C161.247 110.645 153.897 114.385 145.686 114.385C138.636 114.385 132.216 111.625 127.385 107.095C128.476 103.595 129.056 99.8748 129.056 96.0046C129.056 88.3843 126.785 81.3039 122.895 75.4337Z" fill="#2294F5"/>
<path fill-rule="evenodd" clip-rule="evenodd" d="M89.8537 145.727C89.8537 140.857 88.5137 136.307 86.1936 132.446C78.4632 131.016 71.5929 127.036 66.4426 121.396C60.6324 127.756 52.642 132.006 43.6916 132.866C41.5215 136.637 40.2814 141.037 40.2814 145.727C40.2814 159.748 51.3719 171.118 65.0626 171.118C78.7532 171.118 89.8537 159.758 89.8537 145.727ZM65.1026 165.478C57.3622 165.478 50.7919 160.148 48.5518 152.787C52.542 157.758 58.5023 160.908 65.1626 160.908C71.7229 160.908 77.6132 157.848 81.5933 152.997C79.2832 160.258 72.7729 165.478 65.1026 165.478Z" fill="#2294F5"/>
<path fill-rule="evenodd" clip-rule="evenodd" d="M68.8628 177.318C79.4333 175.968 88.3137 169.028 92.6039 159.478C96.8941 169.038 105.774 175.978 116.345 177.318C117.025 179.629 117.385 182.079 117.385 184.609C117.385 198.629 106.295 210 92.6039 210C78.9132 210 67.8227 198.629 67.8227 184.609C67.8227 182.079 68.1927 179.629 68.8628 177.318ZM75.7031 191.449C77.9432 198.809 84.5135 204.14 92.2539 204.14C99.9242 204.14 106.435 198.909 108.745 191.659C104.764 196.509 98.8742 199.57 92.3139 199.57C85.6535 199.57 79.6933 196.419 75.7031 191.449Z" fill="#2294F5"/>
<path fill-rule="evenodd" clip-rule="evenodd" d="M566.628 83.0633C575.38 76.8835 585.955 73.2709 597.345 73.2709C627.507 73.2709 651.959 98.6071 651.959 129.861C651.959 161.115 627.507 186.451 597.345 186.451C585.955 186.451 575.38 182.838 566.628 176.658V228.766H541.716V73.0452H566.628V83.0633ZM597.345 161.287C613.749 161.287 627.047 147.116 627.047 129.635C627.047 112.154 613.749 97.9832 597.345 97.9832C580.94 97.9832 567.642 112.154 567.642 129.635C567.642 147.116 580.94 161.287 597.345 161.287ZM772.036 138.505C772.472 135.672 772.69 132.838 772.69 129.86C772.69 98.6229 748.215 73.27 718.075 73.27C687.935 73.27 663.46 98.6229 663.46 129.86C663.46 161.097 687.935 186.45 718.075 186.45C732.745 186.45 746.036 180.421 755.913 170.686L738.338 154.414C733.036 160.007 725.919 163.349 718.148 163.349C704.349 163.349 692.728 152.67 689.388 138.287H746.908V138.432H772.036V138.505ZM689.896 119.109C693.89 105.815 705.002 96.2983 718.075 96.2983C731.148 96.2983 742.26 105.887 746.254 119.109H689.896ZM467.037 186.451C480.721 186.451 493.27 181.583 503.05 173.483L503.052 183.63H523.333V135.05C523.488 133.341 523.567 131.61 523.567 129.861C523.567 98.6071 498.258 73.2709 467.037 73.2709C435.816 73.2709 410.506 98.6071 410.506 129.861C410.506 161.115 435.816 186.451 467.037 186.451ZM498.655 129.861C498.655 147.342 484.499 161.513 467.037 161.513C449.574 161.513 435.418 147.342 435.418 129.861C435.418 112.38 449.574 98.2089 467.037 98.2089C484.499 98.2089 498.655 112.38 498.655 129.861ZM367.446 90.9045C373.844 83.1624 381.902 77.2204 391.563 77.2204C398.465 77.2204 405.042 78.7863 411.028 81.6194C405.093 88.9103 400.523 97.3588 397.708 106.574C397.391 106.564 397.073 106.559 396.754 106.559C384.38 106.559 372.402 112.648 367.446 122.755V183.63H341.97V77.5589H367.446V90.9045ZM318.524 202.756C318.524 190.821 312.046 180.07 301.692 172.539C313.18 162.164 320.44 146.891 320.44 129.861C320.44 119.659 317.834 110.087 313.275 101.822C319.614 99.7905 324.273 100.663 324.273 100.663V78.9381C322.753 78.4269 321.48 77.9121 320.3 77.4346C315.427 75.464 312.129 74.1298 299.595 76.3173C295.247 77.0761 292.114 78.0375 289.856 79.0292C282.605 75.3416 274.448 73.2709 265.826 73.2709C235.663 73.2709 211.211 98.6071 211.211 129.861C211.211 161.115 235.663 186.451 265.826 186.451C265.99 186.451 266.155 186.45 266.319 186.449L266.319 186.454C280.379 186.639 291.696 194.726 291.696 204.675C291.696 214.74 280.113 222.899 265.826 222.899C251.971 222.899 240.66 215.227 239.987 205.585L216.347 216.984C223.751 232.752 243.11 244 265.826 244C294.93 244 318.524 225.535 318.524 202.756ZM295.528 129.861C295.528 147.342 282.23 161.513 265.826 161.513C249.421 161.513 236.123 147.342 236.123 129.861C236.123 112.38 249.421 98.2089 265.826 98.2089C282.23 98.2089 295.528 112.38 295.528 129.861Z" fill="#1B1B1B"/>
</svg>